<?xml version="1.0" encoding="utf-8"?>

<!DOCTYPE svg PUBLIC "-//W3C//DTD SVG 1.1//EN" "http://www.w3.org/Graphics/SVG/1.1/DTD/svg11.dtd">
<!-- Uploaded to: SVG Repo, www.svgrepo.com, Generator: SVG Repo Mixer Tools -->
<svg height="800px" width="800px" version="1.1" id="_x32_" xmlns="http://www.w3.org/2000/svg" xmlns:xlink="http://www.w3.org/1999/xlink" 
	 viewBox="0 0 512 512"  xml:space="preserve">
<style type="text/css">
	.st0{fill:#8aa07e;}
</style>
<g>
	<path class="st0" d="M441.012,266.373c38.044-55.965,79.444-147.642,19.276-208.446c-61.274-61.942-155.754-18.852-211.81,19.124
		c0.068-33.796-9.672-60.487-26.07-77.052c-6.748,12.656-13.285,43.907-59.479,89.601c-53.413,52.852-117.74,119.898-137.75,160.208
		C7.591,285.225-16.699,375.365,38.426,448.773l-24.851,24.843l34.985,34.993l25.01-25.003
		c52.996,38.318,122.079,35.379,182.482,5.961c54.662-26.63,219.02-192.738,251.566-204.448
		C492.492,265.828,461.818,264.601,441.012,266.373z M461.03,177.332l-24.366-24.631l30.774-30.44
		C469.709,140.014,466.862,158.852,461.03,177.332z M443.806,74.242c8.96,9.066,14.906,19.17,18.579,29.902l-37.098,36.689
		L377.01,92.048l37.098-36.704C424.803,59.124,434.839,65.19,443.806,74.242z M233.39,234.116l36.166-35.772l48.277,48.792
		l-36.166,35.78L233.39,234.116z M269.996,294.458l-36.173,35.78l-48.27-48.792l36.166-35.78L269.996,294.458z M281.228,186.792
		l36.166-35.772l48.277,48.784l-36.166,35.78L281.228,186.792z M329.074,139.462l36.166-35.766l48.27,48.785l-36.174,35.772
		L329.074,139.462z M396.036,50.103l-30.766,30.44l-24.373-24.647C359.446,50.27,378.314,47.626,396.036,50.103z M324.204,62.198
		l29.221,29.546l-36.166,35.78l-40.794-41.249C290.901,77.4,307.208,68.781,324.204,62.198z M246.728,106.908
		c4.802-3.62,10.097-7.422,15.868-11.3L305.518,139l-36.166,35.78l-31.19-31.516C242.131,130.585,244.979,118.436,246.728,106.908z
		 M231.792,160.17l26.176,26.456l-36.159,35.772l-12.99-13.133C218.333,192.269,225.915,175.878,231.792,160.17z M200.284,223.844
		c0,0,0.007-0.022,0.015-0.037l10.18,10.293l-29.812,29.494C185.62,250.786,191.998,237.486,200.284,223.844z M174.184,403.245
		c0,0-0.296-0.704-0.757-2.052l1.901,1.916C174.964,403.162,174.54,403.184,174.184,403.245z M166.087,360.898
		c-1.47-17.526-0.901-39.9,5.105-65.236l2.666-2.643l48.27,48.808l-37.878,37.446L166.087,360.898z M205.382,400.632l-9.392-9.498
		l37.87-37.454l35.734,36.136C245.728,397.375,223.514,399.511,205.382,400.632z M312.154,370.071
		c-8.718,5.278-17.405,9.603-25.972,13.11l-40.454-40.908l36.166-35.78l46.755,47.27
		C323.272,359.073,317.751,364.542,312.154,370.071z M340.321,342.205l-46.755-47.255l36.166-35.78l46.763,47.27
		C366.589,316.226,354.144,328.542,340.321,342.205z M390.545,292.504c-0.727,0.735-1.591,1.591-2.386,2.37l-46.755-47.247
		l36.173-35.787l42.93,43.4C408.64,272.478,397.279,285.861,390.545,292.504z M389.159,200.206l36.174-35.788l29.22,29.547
		c-6.778,16.928-15.564,33.137-24.608,47.474L389.159,200.206z"/>
</g>
</svg>